<mxfile host="app.diagrams.net" modified="2024-01-25T17:16:39.307Z" agent="Mozilla/5.0 (X11; Linux x86_64) AppleWebKit/537.36 (KHTML, like Gecko) Chrome/121.0.0.0 Safari/537.36" etag="Ckv1Yh58Wk8UKh_KZKWK" version="23.0.1" type="device">
  <diagram name="Page-1" id="KwNSYmPg0u967FBHecei">
    <mxGraphModel dx="2074" dy="1115" grid="1" gridSize="10" guides="1" tooltips="1" connect="1" arrows="1" fold="1" page="1" pageScale="1" pageWidth="827" pageHeight="1169" background="#000000" math="0" shadow="0">
      <root>
        <mxCell id="0" />
        <mxCell id="1" parent="0" />
        <mxCell id="KF0D9zMGD4cR6DPdZHrD-3" value="" style="endArrow=classic;html=1;rounded=0;strokeWidth=3;strokeColor=#FCFCFC;" edge="1" parent="1">
          <mxGeometry width="50" height="50" relative="1" as="geometry">
            <mxPoint x="960" y="177" as="sourcePoint" />
            <mxPoint x="960" y="97" as="targetPoint" />
            <Array as="points" />
          </mxGeometry>
        </mxCell>
        <mxCell id="KF0D9zMGD4cR6DPdZHrD-4" value="" style="endArrow=classic;html=1;rounded=0;strokeWidth=3;strokeColor=#FCFCFC;entryX=0.368;entryY=-0.133;entryDx=0;entryDy=0;entryPerimeter=0;" edge="1" parent="1" target="KF0D9zMGD4cR6DPdZHrD-63">
          <mxGeometry width="50" height="50" relative="1" as="geometry">
            <mxPoint x="990" y="100" as="sourcePoint" />
            <mxPoint x="990" y="157.5" as="targetPoint" />
            <Array as="points" />
          </mxGeometry>
        </mxCell>
        <mxCell id="KF0D9zMGD4cR6DPdZHrD-46" style="edgeStyle=orthogonalEdgeStyle;rounded=0;orthogonalLoop=1;jettySize=auto;html=1;exitX=0.75;exitY=1;exitDx=0;exitDy=0;" edge="1" parent="1" source="KF0D9zMGD4cR6DPdZHrD-22">
          <mxGeometry relative="1" as="geometry">
            <mxPoint x="441" y="665" as="targetPoint" />
          </mxGeometry>
        </mxCell>
        <UserObject label="8.8.8.8" link="foobar.com" id="KF0D9zMGD4cR6DPdZHrD-10">
          <mxCell style="text;whiteSpace=wrap;fontColor=#FCFCFC;fontSize=30;fontStyle=1" vertex="1" parent="1">
            <mxGeometry x="1008" y="114" width="110" height="30" as="geometry" />
          </mxCell>
        </UserObject>
        <mxCell id="KF0D9zMGD4cR6DPdZHrD-11" value="" style="rounded=1;whiteSpace=wrap;html=1;fillColor=#171717;strokeColor=#EA6B66;strokeWidth=5;" vertex="1" parent="1">
          <mxGeometry x="660" y="330" width="681" height="740" as="geometry" />
        </mxCell>
        <UserObject label="Req" link="foobar.com" id="KF0D9zMGD4cR6DPdZHrD-19">
          <mxCell style="text;whiteSpace=wrap;fontColor=#FCFCFC;fontSize=30;fontStyle=1" vertex="1" parent="1">
            <mxGeometry x="891" y="247" width="55" height="30" as="geometry" />
          </mxCell>
        </UserObject>
        <UserObject label="application filesÂ &#xa;" link="foobar.com" id="KF0D9zMGD4cR6DPdZHrD-38">
          <mxCell style="text;whiteSpace=wrap;fontColor=#F5F5F5;fontSize=28;fontStyle=0" vertex="1" parent="1">
            <mxGeometry x="898" y="990" width="220" height="30" as="geometry" />
          </mxCell>
        </UserObject>
        <mxCell id="KF0D9zMGD4cR6DPdZHrD-39" style="edgeStyle=orthogonalEdgeStyle;rounded=0;orthogonalLoop=1;jettySize=auto;html=1;exitX=0.5;exitY=1;exitDx=0;exitDy=0;" edge="1" parent="1" source="KF0D9zMGD4cR6DPdZHrD-38" target="KF0D9zMGD4cR6DPdZHrD-38">
          <mxGeometry relative="1" as="geometry" />
        </mxCell>
        <UserObject label="MySQL DB" link="foobar.com" id="KF0D9zMGD4cR6DPdZHrD-40">
          <mxCell style="text;whiteSpace=wrap;fontColor=#F5F5F5;fontSize=27;fontStyle=0" vertex="1" parent="1">
            <mxGeometry x="1050" y="760" width="160" height="30" as="geometry" />
          </mxCell>
        </UserObject>
        <UserObject label="App Server" link="foobar.com" id="KF0D9zMGD4cR6DPdZHrD-41">
          <mxCell style="text;whiteSpace=wrap;fontColor=#F5F5F5;fontSize=27;fontStyle=0" vertex="1" parent="1">
            <mxGeometry x="827" y="770" width="160" height="30" as="geometry" />
          </mxCell>
        </UserObject>
        <UserObject label="Nginx" link="foobar.com" id="KF0D9zMGD4cR6DPdZHrD-42">
          <mxCell style="text;whiteSpace=wrap;fontColor=#F5F5F5;fontSize=27;fontStyle=0" vertex="1" parent="1">
            <mxGeometry x="958" y="530" width="64" height="30" as="geometry" />
          </mxCell>
        </UserObject>
        <UserObject label="Server" link="foobar.com" id="KF0D9zMGD4cR6DPdZHrD-57">
          <mxCell style="text;whiteSpace=wrap;fontColor=#FCFCFC;fontSize=35;fontStyle=1" vertex="1" parent="1">
            <mxGeometry x="937" y="360" width="116" height="30" as="geometry" />
          </mxCell>
        </UserObject>
        <mxCell id="KF0D9zMGD4cR6DPdZHrD-58" value="" style="image;html=1;image=img/lib/clip_art/computers/Server_128x128.png" vertex="1" parent="1">
          <mxGeometry x="950" y="450" width="80" height="80" as="geometry" />
        </mxCell>
        <UserObject label="www.foobar.com" link="foobar.com" id="KF0D9zMGD4cR6DPdZHrD-60">
          <mxCell style="text;whiteSpace=wrap;fontColor=#FCFCFC;fontSize=28;fontStyle=1" vertex="1" parent="1">
            <mxGeometry x="725" y="114" width="216" height="30" as="geometry" />
          </mxCell>
        </UserObject>
        <mxCell id="KF0D9zMGD4cR6DPdZHrD-61" style="edgeStyle=orthogonalEdgeStyle;rounded=0;orthogonalLoop=1;jettySize=auto;html=1;exitX=0.5;exitY=1;exitDx=0;exitDy=0;" edge="1" parent="1" source="KF0D9zMGD4cR6DPdZHrD-10" target="KF0D9zMGD4cR6DPdZHrD-10">
          <mxGeometry relative="1" as="geometry" />
        </mxCell>
        <UserObject label="DNS" link="foobar.com" id="KF0D9zMGD4cR6DPdZHrD-62">
          <mxCell style="text;whiteSpace=wrap;fontColor=#FCFCFC;fontSize=30;fontStyle=1" vertex="1" parent="1">
            <mxGeometry x="940" y="48" width="136" height="30" as="geometry" />
          </mxCell>
        </UserObject>
        <UserObject label="User" link="foobar.com" id="KF0D9zMGD4cR6DPdZHrD-63">
          <mxCell style="text;whiteSpace=wrap;fontColor=#FCFCFC;fontSize=30;fontStyle=1" vertex="1" parent="1">
            <mxGeometry x="940" y="184" width="136" height="30" as="geometry" />
          </mxCell>
        </UserObject>
        <mxCell id="KF0D9zMGD4cR6DPdZHrD-64" value="" style="edgeStyle=orthogonalEdgeStyle;rounded=0;orthogonalLoop=1;jettySize=auto;html=1;exitX=0.75;exitY=1;exitDx=0;exitDy=0;" edge="1" parent="1" source="KF0D9zMGD4cR6DPdZHrD-10" target="KF0D9zMGD4cR6DPdZHrD-22">
          <mxGeometry relative="1" as="geometry">
            <mxPoint x="441" y="665" as="targetPoint" />
            <mxPoint x="1089" y="120" as="sourcePoint" />
          </mxGeometry>
        </mxCell>
        <UserObject label="Res" link="foobar.com" id="KF0D9zMGD4cR6DPdZHrD-22">
          <mxCell style="text;whiteSpace=wrap;fontColor=#FCFCFC;fontSize=30;fontStyle=1" vertex="1" parent="1">
            <mxGeometry x="1006" y="250" width="136" height="30" as="geometry" />
          </mxCell>
        </UserObject>
        <mxCell id="KF0D9zMGD4cR6DPdZHrD-65" value="" style="endArrow=classic;html=1;rounded=0;strokeWidth=3;strokeColor=#FCFCFC;" edge="1" parent="1">
          <mxGeometry width="50" height="50" relative="1" as="geometry">
            <mxPoint x="990" y="311" as="sourcePoint" />
            <mxPoint x="990" y="231" as="targetPoint" />
            <Array as="points" />
          </mxGeometry>
        </mxCell>
        <mxCell id="KF0D9zMGD4cR6DPdZHrD-67" value="" style="endArrow=classic;html=1;rounded=0;strokeWidth=3;strokeColor=#FCFCFC;entryX=0.368;entryY=-0.133;entryDx=0;entryDy=0;entryPerimeter=0;" edge="1" parent="1">
          <mxGeometry width="50" height="50" relative="1" as="geometry">
            <mxPoint x="961" y="232" as="sourcePoint" />
            <mxPoint x="961" y="318" as="targetPoint" />
            <Array as="points" />
          </mxGeometry>
        </mxCell>
        <mxCell id="KF0D9zMGD4cR6DPdZHrD-69" style="edgeStyle=orthogonalEdgeStyle;rounded=0;orthogonalLoop=1;jettySize=auto;html=1;exitX=0.25;exitY=1;exitDx=0;exitDy=0;" edge="1" parent="1" source="KF0D9zMGD4cR6DPdZHrD-19" target="KF0D9zMGD4cR6DPdZHrD-19">
          <mxGeometry relative="1" as="geometry" />
        </mxCell>
        <mxCell id="KF0D9zMGD4cR6DPdZHrD-73" value="" style="verticalLabelPosition=bottom;html=1;verticalAlign=top;align=center;strokeColor=none;fillColor=#F5F5F5;shape=mxgraph.azure.code_file;pointerEvents=1;" vertex="1" parent="1">
          <mxGeometry x="974.5" y="930" width="47.5" height="50" as="geometry" />
        </mxCell>
        <mxCell id="KF0D9zMGD4cR6DPdZHrD-76" value="" style="shape=datastore;whiteSpace=wrap;html=1;" vertex="1" parent="1">
          <mxGeometry x="1082" y="670" width="78" height="80" as="geometry" />
        </mxCell>
        <mxCell id="KF0D9zMGD4cR6DPdZHrD-77" value="" style="sketch=0;outlineConnect=0;fontColor=#232F3E;gradientColor=none;fillColor=#F5F5F5;strokeColor=none;dashed=0;verticalLabelPosition=bottom;verticalAlign=top;align=center;html=1;fontSize=12;fontStyle=0;aspect=fixed;pointerEvents=1;shape=mxgraph.aws4.traditional_server;" vertex="1" parent="1">
          <mxGeometry x="860" y="664.67" width="55" height="95.33" as="geometry" />
        </mxCell>
        <mxCell id="KF0D9zMGD4cR6DPdZHrD-78" value="" style="endArrow=classic;html=1;rounded=0;strokeWidth=3;strokeColor=#FCFCFC;" edge="1" parent="1">
          <mxGeometry width="50" height="50" relative="1" as="geometry">
            <mxPoint x="997.75" y="920" as="sourcePoint" />
            <mxPoint x="997.75" y="840" as="targetPoint" />
            <Array as="points" />
          </mxGeometry>
        </mxCell>
        <mxCell id="KF0D9zMGD4cR6DPdZHrD-80" value="" style="endArrow=classic;html=1;rounded=0;strokeWidth=3;strokeColor=#FCFCFC;" edge="1" parent="1">
          <mxGeometry width="50" height="50" relative="1" as="geometry">
            <mxPoint x="998" y="665.0000000000001" as="sourcePoint" />
            <mxPoint x="998" y="585.0000000000001" as="targetPoint" />
            <Array as="points" />
          </mxGeometry>
        </mxCell>
        <mxCell id="KF0D9zMGD4cR6DPdZHrD-82" value="" style="endArrow=classic;html=1;rounded=0;strokeWidth=3;strokeColor=#FCFCFC;entryX=0.368;entryY=-0.133;entryDx=0;entryDy=0;entryPerimeter=0;" edge="1" parent="1">
          <mxGeometry width="50" height="50" relative="1" as="geometry">
            <mxPoint x="997.75" y="600" as="sourcePoint" />
            <mxPoint x="997.75" y="686" as="targetPoint" />
            <Array as="points" />
          </mxGeometry>
        </mxCell>
      </root>
    </mxGraphModel>
  </diagram>
</mxfile>
